<svg width="51" height="47" viewBox="0 0 51 47" fill="none" xmlns="http://www.w3.org/2000/svg">
<path d="M2.36035 23.4095L9.30414 16.4658C18.341 7.42893 33.0205 7.42894 42.0573 16.4658L49.0011 23.4095L42.0573 30.3533C33.0205 39.3902 18.341 39.3902 9.30414 30.3533L2.36035 23.4095Z" stroke="white" stroke-width="3" stroke-linejoin="round"/>
<path d="M25.6801 32.2501C30.5623 32.2501 34.5201 28.2923 34.5201 23.4101C34.5201 18.5279 30.5623 14.5701 25.6801 14.5701C20.7979 14.5701 16.8401 18.5279 16.8401 23.4101C16.8401 28.2923 20.7979 32.2501 25.6801 32.2501Z" fill="white" stroke="white" stroke-miterlimit="10"/>
<path d="M25.6799 2.05005V9.69005" stroke="white" stroke-width="3" stroke-miterlimit="10"/>
<path d="M43.3299 7.79004L37.9299 13.19" stroke="white" stroke-width="3" stroke-miterlimit="10"/>
<path d="M8.03003 7.79004L13.43 13.19" stroke="white" stroke-width="3" stroke-miterlimit="10"/>
</svg>
