<svg width="25" height="25" viewBox="0 0 25 25" fill="none" xmlns="http://www.w3.org/2000/svg">
<path d="M4.01307 15.3684C5.67713 15.3684 7.02611 14.0194 7.02611 12.3553C7.02611 10.6913 5.67713 9.34229 4.01307 9.34229C2.349 9.34229 1 10.6913 1 12.3553C1 14.0194 2.349 15.3684 4.01307 15.3684Z" stroke="#FC5A40" stroke-width="2" stroke-miterlimit="10"/>
<path d="M20.9877 23.7107C22.6517 23.7107 24.0007 22.3617 24.0007 20.6976C24.0007 19.0336 22.6517 17.6846 20.9877 17.6846C19.3236 17.6846 17.9746 19.0336 17.9746 20.6976C17.9746 22.3617 19.3236 23.7107 20.9877 23.7107Z" stroke="#FC5A40" stroke-width="2" stroke-miterlimit="10"/>
<path d="M20.9877 7.0261C22.6517 7.0261 24.0007 5.67711 24.0007 4.01305C24.0007 2.34899 22.6517 1 20.9877 1C19.3236 1 17.9746 2.34899 17.9746 4.01305C17.9746 5.67711 19.3236 7.0261 20.9877 7.0261Z" stroke="#FC5A40" stroke-width="2" stroke-miterlimit="10"/>
<path d="M6.26465 11.0417L18.4026 5.24609" stroke="#FC5A40" stroke-width="2" stroke-miterlimit="10"/>
<path d="M6.26465 13.6689L18.4026 19.4645" stroke="#FC5A40" stroke-width="2" stroke-miterlimit="10"/>
</svg>
