<svg width="21" height="21" viewBox="0 0 21 21" fill="none" xmlns="http://www.w3.org/2000/svg">
<path d="M14.875 19.25C14.1458 19.25 13.526 18.9948 13.0156 18.4844C12.5052 17.974 12.25 17.3542 12.25 16.625C12.25 16.5375 12.2719 16.3333 12.3156 16.0125L6.16875 12.425C5.93542 12.6438 5.66562 12.8151 5.35938 12.9391C5.05312 13.063 4.725 13.125 4.375 13.125C3.64583 13.125 3.02604 12.8698 2.51562 12.3594C2.00521 11.849 1.75 11.2292 1.75 10.5C1.75 9.77083 2.00521 9.15104 2.51562 8.64062C3.02604 8.13021 3.64583 7.875 4.375 7.875C4.725 7.875 5.05312 7.93698 5.35938 8.06094C5.66562 8.1849 5.93542 8.35625 6.16875 8.575L12.3156 4.9875C12.2865 4.88542 12.2682 4.78698 12.2609 4.69219C12.2536 4.5974 12.25 4.49167 12.25 4.375C12.25 3.64583 12.5052 3.02604 13.0156 2.51562C13.526 2.00521 14.1458 1.75 14.875 1.75C15.6042 1.75 16.224 2.00521 16.7344 2.51562C17.2448 3.02604 17.5 3.64583 17.5 4.375C17.5 5.10417 17.2448 5.72396 16.7344 6.23438C16.224 6.74479 15.6042 7 14.875 7C14.525 7 14.1969 6.93802 13.8906 6.81406C13.5844 6.6901 13.3146 6.51875 13.0813 6.3L6.93437 9.8875C6.96354 9.98958 6.98177 10.088 6.98906 10.1828C6.99635 10.2776 7 10.3833 7 10.5C7 10.6167 6.99635 10.7224 6.98906 10.8172C6.98177 10.912 6.96354 11.0104 6.93437 11.1125L13.0813 14.7C13.3146 14.4812 13.5844 14.3099 13.8906 14.1859C14.1969 14.062 14.525 14 14.875 14C15.6042 14 16.224 14.2552 16.7344 14.7656C17.2448 15.276 17.5 15.8958 17.5 16.625C17.5 17.3542 17.2448 17.974 16.7344 18.4844C16.224 18.9948 15.6042 19.25 14.875 19.25ZM14.875 17.5C15.1229 17.5 15.3307 17.4161 15.4984 17.2484C15.6661 17.0807 15.75 16.8729 15.75 16.625C15.75 16.3771 15.6661 16.1693 15.4984 16.0016C15.3307 15.8339 15.1229 15.75 14.875 15.75C14.6271 15.75 14.4193 15.8339 14.2516 16.0016C14.0839 16.1693 14 16.3771 14 16.625C14 16.8729 14.0839 17.0807 14.2516 17.2484C14.4193 17.4161 14.6271 17.5 14.875 17.5ZM4.375 11.375C4.62292 11.375 4.83073 11.2911 4.99844 11.1234C5.16615 10.9557 5.25 10.7479 5.25 10.5C5.25 10.2521 5.16615 10.0443 4.99844 9.87656C4.83073 9.70885 4.62292 9.625 4.375 9.625C4.12708 9.625 3.91927 9.70885 3.75156 9.87656C3.58385 10.0443 3.5 10.2521 3.5 10.5C3.5 10.7479 3.58385 10.9557 3.75156 11.1234C3.91927 11.2911 4.12708 11.375 4.375 11.375ZM14.875 5.25C15.1229 5.25 15.3307 5.16615 15.4984 4.99844C15.6661 4.83073 15.75 4.62292 15.75 4.375C15.75 4.12708 15.6661 3.91927 15.4984 3.75156C15.3307 3.58385 15.1229 3.5 14.875 3.5C14.6271 3.5 14.4193 3.58385 14.2516 3.75156C14.0839 3.91927 14 4.12708 14 4.375C14 4.62292 14.0839 4.83073 14.2516 4.99844C14.4193 5.16615 14.6271 5.25 14.875 5.25Z" fill="#262626"/>
</svg>
